<svg width="32" height="32" viewBox="0 0 32 32" fill="none" xmlns="http://www.w3.org/2000/svg">
<path d="M16 18.6667C14.8889 18.6667 13.9444 18.2778 13.1667 17.5C12.3889 16.7222 12 15.7778 12 14.6667V6.66666C12 5.55555 12.3889 4.6111 13.1667 3.83332C13.9444 3.05555 14.8889 2.66666 16 2.66666C17.1111 2.66666 18.0556 3.05555 18.8333 3.83332C19.6111 4.6111 20 5.55555 20 6.66666V14.6667C20 15.7778 19.6111 16.7222 18.8333 17.5C18.0556 18.2778 17.1111 18.6667 16 18.6667ZM14.6667 28V23.9C12.3556 23.5889 10.4444 22.5555 8.93334 20.8C7.42223 19.0444 6.66667 17 6.66667 14.6667H9.33334C9.33334 16.5111 9.98356 18.0835 11.284 19.384C12.5845 20.6844 14.1564 21.3342 16 21.3333C17.8444 21.3333 19.4169 20.6831 20.7173 19.3827C22.0178 18.0822 22.6676 16.5102 22.6667 14.6667H25.3333C25.3333 17 24.5778 19.0444 23.0667 20.8C21.5556 22.5555 19.6445 23.5889 17.3333 23.9V28H14.6667ZM16 16C16.3778 16 16.6947 15.872 16.9507 15.616C17.2067 15.36 17.3342 15.0435 17.3333 14.6667V6.66666C17.3333 6.28888 17.2053 5.97243 16.9493 5.71732C16.6933 5.46221 16.3769 5.33421 16 5.33332C15.6222 5.33332 15.3058 5.46132 15.0507 5.71732C14.7956 5.97332 14.6676 6.28977 14.6667 6.66666V14.6667C14.6667 15.0444 14.7947 15.3613 15.0507 15.6173C15.3067 15.8733 15.6231 16.0009 16 16Z" fill="#4ECB71"/>
</svg>
